<?xml version="1.0" encoding="UTF-8"?>
<svg id="M" xmlns="http://www.w3.org/2000/svg" viewBox="0 0 2672.68 647.21">
  <defs>
    <style>
      .cls-1 {
        stroke-width: 0px;
        fill: #FFF;
      }
    </style>
  </defs>
  <g>
    <path class="cls-1" d="m2509.51,497.51c2.86,61.74-58.52,80.38-68.82,87.79-40.34,23.67-31.99,44.05-31.99,44.05h16.11c0-15.57,35.4-41.02,124.35-46.29,110.36,0,98.02-85.55,98.02-85.55h-137.67Z"/>
    <path class="cls-1" d="m2509.89,390.86c2.86,61.74-58.52,80.38-68.82,87.79-40.34,23.67-31.99,44.05-31.99,44.05h16.11c0-15.57,35.4-41.02,124.35-46.29,110.36,0,98.02-85.55,98.02-85.55h-137.67Z"/>
    <path class="cls-1" d="m2424.38,416.38c0-15.57,35.4-41.02,124.35-46.29,110.36,0,98.02-85.55,98.02-85.55h-137.67c2.86,61.74-58.52,80.38-68.82,87.79-40.34,23.67-31.99,44.05-31.99,44.05h16.11Z"/>
    <path class="cls-1" d="m2397.04,45.97c4.8.13,17.21.95,30.97,5.77,11.77,4.65,20.19,10.36,20.19,10.36l-.03-.2c16.77,11.66,31.02,31.84,31.02,66.75-31.38,12.79-52.5,33.73-49.63,71.13,2.36,30.66,20.04,56.58,56.36,56.58,0,0-3.6-40.21,44.81-61.07.04,1.47.1,2.96.22,4.49,2.36,30.66,20.04,56.58,56.36,56.58,0,0-4.62-51.52,66.78-68.18,0-42.73-25.23-166.66-160.85-166.66-.41,0-.81,0-1.22,0-27.73,0-45.34,7.44-51.78,10.74-4.68-1.21-9.54-2.24-14.6-3.08-17.38-3.4-45.56-7.65-78.02-7.65-54.14,0-86.97,21.74-86.97,93.95s61.78,92.92,90.57,106.3c30.57,8.11,34.78,26.69,28.51,38.36-2.62,4.88-8.39,6.59-15.87,6.59-17.26,0-43.63-9.08-61.48-9.08-.14,0-.27,0-.4,0-45.2,0-41.64,60.51-41.64,60.51,0,0,.26,225.97.26,259.45,0,1.38.04,2.69.1,3.95,0,27.1-4.36,24.85-17.95,28.15v19.17l35.06.47c.05,0,.11.04.16.04.06,0,.1,0,.15,0h58.74s.05,0,.14,0c.87,0,8.72-.16,13.83-6.89,3.84-4.35,3.5-12.23,3.5-12.78v-38.57h-.01c-.04-68.58-.15-180.22-.15-230.84,0-73.77,44.17-47.32,44.17-95.47s-51.06-39.66-51.06-126.93c0-60.12,29.65-70.87,49.76-71.93Zm150.78,103.4c-8.15-34.82-28.17-78.09-71.95-102.89.65-.12,1.3-.25,1.95-.37,5.87-1.11,11.81-1.66,17.73-1.66,14.8,0,29.47,3.48,42.66,10.51,21.19,11.31,42.38,31.23,42.38,73.68-13.02,5.3-24.26,12.02-32.76,20.72Z"/>
  </g>
  <path class="cls-1" d="m2233.06,433.05c-2.34-46.69-4.67-63.67-21.76-88.03-27.55-39.28-120.46-23.75-131.82-22.36-28.29,3.46-43.15,15.21-43.15,15.21v22.38c0,1.12,1.23,1.34,2.06.59,10.38-9.36,38.44-15.37,55.56-15.37,7.65,0,18.92,2.8,27.31,9.53,11.08,8.89,17.5,20.17,20.84,41.53,3.81,24.33,4.68,67.36,4.68,90.37,0,120.54-94.92,122.65-94.92,122.65,0,0-25.94.56-53.3-5.15,56.25-37.39,68.81-106.74,68.81-137.18-71.41-16.66-66.78-68.18-66.78-68.18-36.32,0-54.01,25.93-56.36,56.58-2.87,37.4,18.25,58.34,49.63,71.13,0,80.7-76.13,82.7-83.66,82.7-.39,0-.6,0-.6,0,0,0-6.78.03-16.89.06.02-55.12.06-207.77.06-269.21,0-73.77,44.17-47.32,44.17-95.47s-51.07-39.66-51.07-126.93c0-60.01,29.55-70.83,49.66-71.92,5.21.15,18.74,1.1,33.35,6.7,9.66,4.07,16.62,8.57,17.74,9.31,16.72,11.68,30.89,31.84,30.89,66.66-31.38,12.79-52.5,33.73-49.63,71.13,2.36,30.66,20.04,56.58,56.36,56.58,0,0-3.6-40.21,44.81-61.07.04,1.47.1,2.96.22,4.49,2.36,30.66,20.04,56.58,56.36,56.58,0,0-4.62-51.52,66.78-68.18,0-42.73-25.23-166.66-160.85-166.66-.41,0-.81,0-1.22,0-27.73,0-45.34,7.44-51.78,10.74-4.22-1.09-8.57-2.05-13.1-2.84-17.26-3.44-46.02-7.9-79.25-7.9-54.14,0-86.97,21.74-86.97,93.95s61.78,92.92,90.57,106.3c30.57,8.11,34.78,26.69,28.51,38.36-2.62,4.88-8.39,6.59-15.87,6.59-17.26,0-43.63-9.08-61.48-9.08-.14,0-.27,0-.4,0-45.2,0-41.64,60.51-41.64,60.51v279.13c0,30.92,15.29,32.11,17.62,32.11.19,0,.3,0,.3,0h75.82c4.31,0,9.06,0,14.32,0,24.78,0,45.84-4,63.73-10.78,23.47,5.24,51.07,10.74,80.96,10.74,67.3,0,109.83-20.76,136.69-46.72,34.58-33.4,47.05-101.57,44.64-149.58Zm-146.89-283.68c-8.15-34.82-28.17-78.09-71.95-102.89.65-.12,1.3-.25,1.95-.37,5.87-1.11,11.81-1.66,17.73-1.66,14.8,0,29.47,3.48,42.66,10.51,21.19,11.31,42.38,31.23,42.38,73.68-13.02,5.3-24.26,12.02-32.76,20.72Z"/>
  <g>
    <circle class="cls-1" cx="1518.74" cy="325.45" r="60.67"/>
    <path class="cls-1" d="m1720.35,257.61c-.13,0-.27,0-.4,0-17.85,0-44.22,9.08-61.48,9.08-7.48,0-13.24-1.7-15.87-6.59-6.27-11.67-2.06-30.25,28.51-38.36,28.79-13.38,90.57-34.09,90.57-106.3s-32.82-93.95-86.97-93.95h-.03c-54.13,0-113.89.03-113.89.03-43.61,0-74.75,9.95-96.42,21.84-68.09,34.35-82.66,112.02-82.66,144.82,71.41,16.66,66.78,68.18,66.78,68.18,36.32,0,54.01-25.93,56.36-56.58,2.87-37.4-18.25-58.34-49.63-71.13,0-25.9,9.86-45.23,24.38-59.67,16.47-13.39,42.77-24.36,81.54-25.6h0s38.4.3,62,.3c19.93,0,51.92,10.3,51.92,74.19,0,87.28-51.07,81.25-51.07,126.93,0,48.14,44.17,21.7,44.17,95.47,0,61.47.05,214.19.06,269.26-11.76-.04-19.93-.07-19.93-.07,0,0-.21,0-.6,0-7.53,0-83.66-1.99-83.66-82.7,31.38-12.79,52.5-33.73,49.63-71.13-2.36-30.66-20.04-56.58-56.36-56.58,0,0,3.96,44.2-52.22,63.96.02-2.39-.05-4.84-.25-7.38-2.36-30.66-20.04-56.58-56.36-56.58,0,0,4.62,51.52-66.78,68.18,0,42.73,24.73,161.66,160.35,161.66,48.75,0,55.31-5.84,56.14-7.06,15.83,4.81,33.87,7.57,54.43,7.57,10.88,0,19.58-.02,26.55-.05h64.88s.11,0,.3,0c2.34,0,17.62-1.18,17.62-32.11v-279.13s3.55-60.51-41.64-60.51Zm-153.45,350.62c-10.25,1.09-18.65,1.28-23.34,1.28-2.61,0-4.07-.06-4.07-.06,0,0-.21,0-.6,0-7.53,0-83.66-1.99-83.66-82.7,16.39-6.68,29.98-15.59,38.81-27.91,7.19,35.44,27,82.53,72.85,109.38Z"/>
  </g>
  <path class="cls-1" d="m1310.32,257.64c-.13,0-.27,0-.4,0-17.85,0-44.22,9.08-61.48,9.08-7.48,0-13.24-1.7-15.87-6.59-6.27-11.67-2.06-30.25,28.51-38.36,28.79-13.38,90.57-34.09,90.57-106.3s-32.82-93.95-86.97-93.95c-33.24,0-62,4.46-79.25,7.9-5.81,1.02-11.36,2.29-16.66,3.79-.33.09-.5.14-.5.14h0c-36.64,10.51-61.39,31.97-77.86,56.21-7.29-51.82-38.45-68.12-85.57-68.12-89.14-.7-88.41,12.09-88.41,12.09v23.69c0,.42.51.65.83.37,3.07-2.79,14.74-12.03,34.77-12.03s53.43,8.13,53.43,72.02c0,87.28-51.07,81.25-51.07,126.93,0,48.14,44.17,21.7,44.17,95.47,0,58.27.04,178.77.06,240.12-.24,30.4-3.72,26.14-18.07,29.63l.19,19.04h94.17s.05,0,.14,0c.87,0,5.79-.26,10.08-5.64,3.84-4.35,7.25-12.31,7.25-26.91v-278.37s3.55-60.51-41.64-60.51c-.13,0-.27,0-.4,0-17.85,0-44.22,9.08-61.48,9.08-7.48,0-13.24-1.7-15.87-6.59-6.27-11.67-2.06-30.25,28.51-38.36,15.03-6.98,39.04-15.97,58.56-33.23,71.24,16.7,66.62,68.14,66.62,68.14,36.32,0,54.01-25.93,56.36-56.58,2.87-37.4-18.25-58.34-49.63-71.13,0-34.82,14.18-54.98,30.9-66.66,1.12-.74,8.08-5.25,17.73-9.31,14.61-5.6,28.14-6.55,33.36-6.7,20.11,1.09,49.66,11.91,49.66,71.92,0,87.28-51.07,81.25-51.07,126.93,0,48.14,44.17,21.7,44.17,95.47,0,61.97.05,216.7.06,270.6-15.57-.37-38.4-35.62-43.64-124.1,0-90.19-57.14-98.43-78.02-98.43-4.67,0-7.53.41-7.53.41v137.67c1.41-.07,2.78-.1,4.14-.1,58.43,0,76.41,58.85,83.65,68.91,18.01,32.74,38.07,34.12,41.34,34.12.3,0,.46-.01.46-.01h75.43s.11,0,.3,0c2.34,0,17.62-1.18,17.62-32.11v-279.13s3.55-60.51-41.64-60.51Z"/>
  <path class="cls-1" d="m846.21,257.55c-.13,0-.27,0-.4,0-17.85,0-44.22,9.08-61.48,9.08-7.48,0-13.24-1.7-15.87-6.59-6.27-11.67-2.06-30.25,28.51-38.36,28.79-13.38,90.57-34.09,90.57-106.3s-32.82-93.95-86.97-93.95c-1.71-.01-3.39-.02-5.06-.02-79.06,0-110.83,14.75-116.03,17.48-22.65,8.8-38.71,30.79-38.71,56.55,0,33.51,27.16,60.67,60.67,60.67s60.67-27.16,60.67-60.67c0-19.92-9.61-37.6-24.44-48.66,3.57-.63,6.9-1,9.84-1,19.93,0,53.43,8.13,53.43,72.02,0,87.28-51.07,81.25-51.07,126.93,0,48.14,44.17,21.7,44.17,95.47,0,61.62.05,214.94.06,269.67-15.8-.69-80.82-8.04-80.82-82.63,31.38-12.79,52.5-33.73,49.63-71.13-2.36-30.66-20.04-56.58-56.36-56.58,0,0,4.62,51.52-66.78,68.18,0,42.09,24,158.12,154.34,161.58h0s.11,0,.11,0c1.94.05,3.9.08,5.89.08,60.28,0,55.76-.03,55.76-.03,0,0,.07-.02.18-.05h13.88s.11,0,.3,0c2.34,0,17.62-1.18,17.62-32.11v-279.13s3.55-60.51-41.64-60.51Z"/>
  <path class="cls-1" d="m569.7,257.07c-.13,0-.27,0-.4,0-17.85,0-44.22,9.08-61.48,9.08-7.48,0-13.24-1.7-15.87-6.59-6.27-11.67-2.06-30.25,28.51-38.36,28.79-13.38,90.57-34.09,90.57-106.3s-32.82-93.95-86.97-93.95c-50.1,0-90.03,10.12-95.71,11.63-13.95-8.33-31.83-11.64-52.96-11.64-47.98,0-86.63,9.28-94.81,11.4-13.89-8.14-31.62-11.39-52.53-11.39-33.24,0-62,4.45-79.25,7.9-5.81,1.02-11.36,2.29-16.66,3.79-.33.09-.5.14-.5.14h0C41.37,58.65,23.24,151.03,23.24,187.6c71.41,16.66,66.78,68.18,66.78,68.18,36.32,0,54.01-25.93,56.36-56.58,2.87-37.4-18.25-58.34-49.63-71.13,0-34.82,14.18-54.98,30.9-66.66,1.12-.74,8.08-5.25,17.73-9.31,14.61-5.6,28.15-6.55,33.36-6.7,20.11,1.09,49.66,11.91,49.66,71.92,0,87.28-51.07,81.25-51.07,126.93,0,48.14,44.17,21.7,44.17,95.47,0,61.94.05,216.55.06,270.52-15.66-3.72-38.66-39.95-43.64-124.02,0-90.19-57.14-98.43-78.02-98.43-4.67,0-7.53.41-7.53.41v137.67c1.41-.07,2.78-.1,4.14-.1,58.43,0,76.41,58.85,83.65,68.91,16.53,29.1,34.73,33.47,41.4,34.05v.06h.9c.33.02.63.02.87.02.38,0,.64-.01.77-.02h73.29s.11,0,.3,0c2.34,0,17.62-1.18,17.62-32.11v-279.13s3.55-60.51-41.64-60.51c-.13,0-.27,0-.4,0-17.85,0-44.22,9.08-61.48,9.08-7.48,0-13.24-1.7-15.87-6.59-6.27-11.67-2.06-30.25,28.51-38.36,28.79-13.38,90.57-34.09,90.57-106.3,0-29.58-5.51-50.69-15.74-65.31,7.1-2.45,15.09-4.3,23.05-4.3,19.93,0,53.43,8.13,53.43,72.02,0,87.28-51.07,81.25-51.07,126.93,0,48.14,44.17,21.7,44.17,95.47,0,58.27.04,178.63.06,239.98-.24,30.81-3.72,26.14-18.07,29.63l-.1,19.47,94.46.03s.05,0,.14,0c.87,0,5.79-.26,10.08-5.64,3.84-4.35,7.25-12.31,7.25-26.91v-278.69s3.55-60.51-41.64-60.51c-.13,0-.27,0-.4,0-17.85,0-44.22,9.08-61.48,9.08-7.48,0-13.24-1.7-15.87-6.59-6.27-11.67-2.06-30.25,28.51-38.36,28.79-13.38,90.57-34.09,90.57-106.3,0-29.32-5.41-50.32-15.47-64.92,7.36-2.63,15.75-4.67,24.11-4.67,19.93,0,53.43,8.13,53.43,72.02,0,87.28-51.07,81.25-51.07,126.93,0,48.14,44.17,21.7,44.17,95.47,0,58.27.04,178.63.06,239.98-.26,33.29-3.72,26.14-18.07,29.63l-.1,19.47,94.46.03s.05,0,.14,0c.87,0,5.79-.26,10.08-5.64,3.84-4.35,7.25-12.31,7.25-26.91v-278.69s3.55-60.51-41.64-60.51Z"/>
</svg>