<?xml version="1.0" encoding="UTF-8"?>
<!-- Generated by Pixelmator Pro 3.4.1 -->
<svg width="647" height="2672" viewBox="0 0 647 2672" xmlns="http://www.w3.org/2000/svg">
    <g id="Group">
        <path id="Path" fill="#ffffff" stroke="none" d="M 497.300018 162.48999 C 559.039978 159.629883 577.679993 221.01001 585.089966 231.310059 C 608.759949 271.649902 629.139954 263.300049 629.139954 263.300049 L 629.139954 247.189941 C 613.570007 247.189941 588.119995 211.790039 582.849976 122.840088 C 582.849976 12.47998 497.300018 24.820068 497.300018 24.820068 L 497.300018 162.48999 Z"/>
        <path id="path1" fill="#ffffff" stroke="none" d="M 390.649994 162.110107 C 452.390015 159.25 471.029999 220.629883 478.440002 230.929932 C 502.110016 271.27002 522.48999 262.919922 522.48999 262.919922 L 522.48999 246.810059 C 506.920013 246.810059 481.470001 211.409912 476.200012 122.459961 C 476.200012 12.100098 390.649994 24.439941 390.649994 24.439941 L 390.649994 162.110107 Z"/>
        <path id="path2" fill="#ffffff" stroke="none" d="M 416.170013 247.620117 C 400.600006 247.620117 375.149994 212.219971 369.880005 123.27002 C 369.880005 12.909912 284.330017 25.25 284.330017 25.25 L 284.330017 162.919922 C 346.070007 160.060059 364.710022 221.439941 372.119995 231.73999 C 395.790009 272.080078 416.170013 263.72998 416.170013 263.72998 L 416.170013 247.620117 Z"/>
        <path id="path3" fill="#ffffff" stroke="none" d="M 45.76001 274.959961 C 45.890015 270.159912 46.710022 257.75 51.530029 243.98999 C 56.179993 232.219971 61.890015 223.800049 61.890015 223.800049 L 61.690002 223.830078 C 73.349976 207.060059 93.529968 192.810059 128.440002 192.810059 C 141.230011 224.189941 162.170013 245.310059 199.570007 242.439941 C 230.230011 240.080078 256.149994 222.399902 256.149994 186.080078 C 256.149994 186.080078 215.940002 189.679932 195.079987 141.27002 C 196.549988 141.22998 198.040009 141.169922 199.570007 141.050049 C 230.230011 138.689941 256.149994 121.01001 256.149994 84.689941 C 256.149994 84.689941 204.630005 89.310059 187.970001 17.909912 C 145.23999 17.909912 21.309998 43.139893 21.309998 178.76001 C 21.309998 179.169922 21.309998 179.570068 21.309998 179.97998 C 21.309998 207.709961 28.75 225.320068 32.049988 231.76001 C 30.840027 236.439941 29.809998 241.300049 28.969971 246.360107 C 25.570007 263.73999 21.320007 291.919922 21.320007 324.379883 C 21.320007 378.52002 43.059998 411.350098 115.27002 411.350098 C 187.480011 411.350098 208.190002 349.570068 221.570007 320.780029 C 229.679993 290.209961 248.26001 286 259.930023 292.27002 C 264.809998 294.889893 266.52002 300.659912 266.52002 308.139893 C 266.52002 325.399902 257.440002 351.77002 257.440002 369.620117 C 257.440002 369.76001 257.440002 369.889893 257.440002 370.02002 C 257.440002 415.219971 317.950012 411.659912 317.950012 411.659912 C 317.950012 411.659912 543.919983 411.399902 577.399963 411.399902 C 578.779968 411.399902 580.089966 411.360107 581.349976 411.300049 C 608.449951 411.300049 606.199951 415.659912 609.5 429.25 L 628.669983 429.25 L 629.139954 394.189941 C 629.139954 394.139893 629.179993 394.080078 629.179993 394.030029 C 629.179993 393.969971 629.179993 393.929932 629.179993 393.879883 L 629.179993 335.139893 C 629.179993 335.139893 629.179993 335.090088 629.179993 335 C 629.179993 334.129883 629.019958 326.280029 622.289978 321.169922 C 617.940002 317.330078 610.059998 317.669922 609.509949 317.669922 L 570.940002 317.669922 L 570.940002 317.679932 C 502.360016 317.719971 390.720001 317.830078 340.100006 317.830078 C 266.330017 317.830078 292.779999 273.659912 244.630005 273.659912 C 196.480011 273.659912 204.970001 324.719971 117.700012 324.719971 C 57.580017 324.719971 46.830017 295.070068 45.77002 274.959961 Z M 149.160004 124.179932 C 114.340027 132.330078 71.070007 152.350098 46.27002 196.129883 C 46.150024 195.47998 46.02002 194.830078 45.900024 194.179932 C 44.789978 188.310059 44.23999 182.370117 44.23999 176.449951 C 44.23999 161.649902 47.719971 146.97998 54.75 133.790039 C 66.059998 112.600098 85.97998 91.409912 128.429993 91.409912 C 133.72998 104.429932 140.450012 115.669922 149.149994 124.169922 Z"/>
    </g>
    <path id="path4" fill="#ffffff" stroke="none" d="M 432.839996 438.939941 C 386.149994 441.280029 369.170013 443.610107 344.809998 460.699951 C 305.529999 488.25 321.059998 581.159912 322.450012 592.52002 C 325.910004 620.810059 337.660004 635.670044 337.660004 635.670044 L 360.040009 635.670044 C 361.160004 635.670044 361.380005 634.439941 360.630005 633.609985 C 351.27002 623.22998 345.26001 595.169922 345.26001 578.050049 C 345.26001 570.399902 348.059998 559.129883 354.790009 550.73999 C 363.680023 539.659912 374.960022 533.23999 396.320007 529.899902 C 420.649994 526.090088 463.680023 525.219971 486.690002 525.219971 C 607.22998 525.219971 609.339966 620.139893 609.339966 620.139893 C 609.339966 620.139893 609.899963 646.079956 604.190002 673.439941 C 566.799988 617.189941 497.450012 604.629883 467.01001 604.629883 C 450.350006 676.040039 398.830017 671.410034 398.830017 671.410034 C 398.830017 707.72998 424.76001 725.420044 455.410004 727.77002 C 492.809998 730.640015 513.75 709.52002 526.539978 678.140015 C 607.23999 678.140015 609.23999 754.27002 609.23999 761.800049 C 609.23999 762.189941 609.23999 762.400024 609.23999 762.400024 C 609.23999 762.400024 609.269958 769.180054 609.299988 779.290039 C 554.179993 779.27002 401.529999 779.22998 340.089996 779.22998 C 266.320007 779.22998 292.77002 735.060059 244.619995 735.060059 C 196.470001 735.060059 204.959991 786.130005 117.690002 786.130005 C 57.679993 786.130005 46.859985 756.579956 45.77002 736.469971 C 45.919983 731.26001 46.869995 717.72998 52.469971 703.119995 C 56.539978 693.459961 61.039978 686.5 61.780029 685.380005 C 73.460022 668.660034 93.619995 654.48999 128.440002 654.48999 C 141.230011 685.869995 162.170013 706.98999 199.570007 704.119995 C 230.230011 701.76001 256.149994 684.079956 256.149994 647.76001 C 256.149994 647.76001 215.940002 651.359985 195.079987 602.949951 C 196.549988 602.909912 198.040009 602.850098 199.570007 602.72998 C 230.230011 600.370117 256.149994 582.689941 256.149994 546.370117 C 256.149994 546.370117 204.630005 550.98999 187.970001 479.590088 C 145.23999 479.590088 21.309998 504.820068 21.309998 640.439941 C 21.309998 640.849976 21.309998 641.25 21.309998 641.660034 C 21.309998 669.390015 28.75 687 32.049988 693.439941 C 30.960022 697.660034 30 702.01001 29.210022 706.540039 C 25.77002 723.800049 21.309998 752.560059 21.309998 785.790039 C 21.309998 839.930054 43.049988 872.76001 115.26001 872.76001 C 187.470001 872.76001 208.179993 810.97998 221.559998 782.189941 C 229.670013 751.619995 248.25 747.410034 259.920013 753.680054 C 264.800018 756.300049 266.51001 762.069946 266.51001 769.550049 C 266.51001 786.810059 257.430023 813.180054 257.430023 831.030029 C 257.430023 831.170044 257.430023 831.300049 257.430023 831.430054 C 257.430023 876.630005 317.940002 873.069946 317.940002 873.069946 L 597.070007 873.069946 C 627.98999 873.069946 629.179993 857.780029 629.179993 855.449951 C 629.179993 855.26001 629.179993 855.150024 629.179993 855.150024 L 629.179993 779.329956 C 629.179993 775.02002 629.179993 770.27002 629.179993 765.01001 C 629.179993 740.22998 625.179993 719.170044 618.399963 701.280029 C 623.639954 677.810059 629.139954 650.209961 629.139954 620.320068 C 629.139954 553.02002 608.380005 510.48999 582.419983 483.629883 C 549.019958 449.050049 480.850006 436.580078 432.839996 438.98999 Z M 149.160004 585.830078 C 114.340027 593.97998 71.070007 614 46.27002 657.780029 C 46.150024 657.130005 46.02002 656.47998 45.900024 655.829956 C 44.789978 649.959961 44.23999 644.02002 44.23999 638.099976 C 44.23999 623.300049 47.719971 608.629883 54.75 595.439941 C 66.059998 574.25 85.97998 553.060059 128.429993 553.060059 C 133.72998 566.080078 140.450012 577.320068 149.149994 585.820068 Z"/>
    <g id="g1">
        <path id="path5" fill="#ffffff" stroke="none" d="M 325.240021 1092.589966 C 358.747131 1092.589966 385.910004 1119.75293 385.910004 1153.26001 C 385.910004 1186.76709 358.747131 1213.930054 325.240021 1213.930054 C 291.73288 1213.930054 264.570007 1186.76709 264.570007 1153.26001 C 264.570007 1119.75293 291.73288 1092.589966 325.240021 1092.589966 Z"/>
        <path id="path6" fill="#ffffff" stroke="none" d="M 257.399994 951.650024 C 257.399994 951.780029 257.399994 951.920044 257.399994 952.050049 C 257.399994 969.900024 266.480011 996.27002 266.480011 1013.530029 C 266.480011 1021.01001 264.779999 1026.77002 259.890015 1029.400024 C 248.220001 1035.670044 229.640015 1031.459961 221.529999 1000.890015 C 208.149994 972.099976 187.440002 910.319946 115.22998 910.319946 C 43.02002 910.319946 21.280029 943.140015 21.280029 997.290039 L 21.280029 997.319946 C 21.280029 1051.449951 21.309998 1111.209961 21.309998 1111.209961 C 21.309998 1154.819946 31.26001 1185.959961 43.150024 1207.630005 C 77.5 1275.719971 155.170013 1290.290039 187.970001 1290.290039 C 204.630005 1218.880005 256.149994 1223.51001 256.149994 1223.51001 C 256.149994 1187.189941 230.220001 1169.5 199.570007 1167.150024 C 162.170013 1164.280029 141.230011 1185.400024 128.440002 1216.780029 C 102.539978 1216.780029 83.210022 1206.920044 68.77002 1192.400024 C 55.380005 1175.930054 44.409973 1149.630005 43.169983 1110.859985 L 43.169983 1110.859985 C 43.169983 1110.859985 43.469971 1072.459961 43.469971 1048.859985 C 43.469971 1028.930054 53.77002 996.939941 117.659973 996.939941 C 204.940002 996.939941 198.910004 1048.01001 244.589996 1048.01001 C 292.730011 1048.01001 266.290009 1003.839966 340.059998 1003.839966 C 401.529999 1003.839966 554.25 1003.790039 609.320007 1003.780029 C 609.279968 1015.540039 609.25 1023.709961 609.25 1023.709961 C 609.25 1023.709961 609.25 1023.920044 609.25 1024.310059 C 609.25 1031.839966 607.259949 1107.969971 526.549988 1107.969971 C 513.759949 1076.589966 492.820007 1055.469971 455.420013 1058.339966 C 424.76001 1060.699951 398.839996 1078.380005 398.839996 1114.699951 C 398.839996 1114.699951 443.040009 1110.73999 462.800018 1166.920044 C 460.410004 1166.900024 457.960022 1166.969971 455.420013 1167.170044 C 424.76001 1169.530029 398.839996 1187.209961 398.839996 1223.530029 C 398.839996 1223.530029 450.360016 1218.910034 467.02002 1290.310059 C 509.75 1290.310059 628.679993 1265.579956 628.679993 1129.959961 C 628.679993 1081.209961 622.839966 1074.650024 621.619995 1073.819946 C 626.429993 1057.98999 629.190002 1039.949951 629.190002 1019.390015 C 629.190002 1008.51001 629.169983 999.810059 629.139954 992.839966 L 629.139954 927.959961 C 629.139954 927.959961 629.139954 927.849976 629.139954 927.660034 C 629.139954 925.319946 627.959961 910.040039 597.029968 910.040039 L 317.899994 910.040039 C 317.899994 910.040039 257.390015 906.48999 257.390015 951.680054 Z M 608.019958 1105.099976 C 609.109985 1115.349976 609.299988 1123.75 609.299988 1128.439941 C 609.299988 1131.050049 609.23999 1132.51001 609.23999 1132.51001 C 609.23999 1132.51001 609.23999 1132.719971 609.23999 1133.109985 C 609.23999 1140.640015 607.25 1216.77002 526.539978 1216.77002 C 519.859985 1200.380005 510.950012 1186.790039 498.630005 1177.959961 C 534.070007 1170.77002 581.159973 1150.959961 608.009949 1105.109985 Z"/>
    </g>
    <path id="path7" fill="#ffffff" stroke="none" d="M 257.430023 1361.680054 C 257.430023 1361.810059 257.430023 1361.949951 257.430023 1362.079956 C 257.430023 1379.930054 266.51001 1406.300049 266.51001 1423.560059 C 266.51001 1431.040039 264.809998 1436.800049 259.920013 1439.430054 C 248.25 1445.699951 229.670013 1441.48999 221.559998 1410.920044 C 208.179993 1382.130005 187.470001 1320.349976 115.26001 1320.349976 C 43.049988 1320.349976 21.309998 1353.170044 21.309998 1407.319946 C 21.309998 1440.560059 25.77002 1469.319946 29.210022 1486.569946 C 30.22998 1492.380005 31.5 1497.930054 33 1503.22998 C 33.090027 1503.560059 33.140015 1503.72998 33.140015 1503.72998 L 33.140015 1503.72998 C 43.650024 1540.369995 65.109985 1565.119995 89.349976 1581.589966 C 37.530029 1588.880005 21.22998 1620.040039 21.22998 1667.159912 C 20.530029 1756.300049 33.320007 1755.570068 33.320007 1755.570068 L 57.01001 1755.570068 C 57.429993 1755.570068 57.659973 1755.060059 57.380005 1754.73999 C 54.590027 1751.669922 45.349976 1740 45.349976 1719.969971 C 45.349976 1699.939941 53.47998 1666.540039 117.369995 1666.540039 C 204.649994 1666.540039 198.619995 1717.609985 244.299988 1717.609985 C 292.440002 1717.609985 266 1673.439941 339.77002 1673.439941 C 398.040009 1673.439941 518.539978 1673.400024 579.889954 1673.380005 C 610.289978 1673.619995 606.029968 1677.099976 609.519958 1691.449951 L 628.559998 1691.26001 L 628.559998 1597.089966 C 628.559998 1597.089966 628.559998 1597.040039 628.559998 1596.949951 C 628.559998 1596.079956 628.299988 1591.160034 622.919983 1586.869995 C 618.570007 1583.030029 610.609985 1579.619995 596.009949 1579.619995 L 317.640015 1579.619995 C 317.640015 1579.619995 257.130005 1576.069946 257.130005 1621.26001 C 257.130005 1621.390015 257.130005 1621.530029 257.130005 1621.660034 C 257.130005 1639.51001 266.210022 1665.880005 266.210022 1683.140015 C 266.210022 1690.619995 264.51001 1696.380005 259.619995 1699.01001 C 247.950012 1705.280029 229.369995 1701.070068 221.26001 1670.5 C 214.279999 1655.469971 205.290009 1631.459961 188.029999 1611.939941 C 204.730011 1540.699951 256.170013 1545.319946 256.170013 1545.319946 C 256.170013 1509 230.23999 1491.310059 199.589996 1488.959961 C 162.190002 1486.089966 141.25 1507.209961 128.460022 1538.589966 C 93.640015 1538.589966 73.47998 1524.410034 61.799988 1507.689941 C 61.059998 1506.569946 56.549988 1499.609985 52.48999 1489.959961 C 46.890015 1475.349976 45.940002 1461.819946 45.789978 1456.599976 C 46.880005 1436.48999 57.700012 1406.939941 117.710022 1406.939941 C 204.98999 1406.939941 198.959991 1458.01001 244.640015 1458.01001 C 292.779999 1458.01001 266.339996 1413.839966 340.110016 1413.839966 C 402.080017 1413.839966 556.809998 1413.790039 610.709961 1413.780029 C 610.339966 1429.349976 575.089966 1452.180054 486.610016 1457.420044 C 396.420013 1457.420044 388.180023 1514.560059 388.180023 1535.439941 C 388.180023 1540.109985 388.589996 1542.969971 388.589996 1542.969971 L 526.259949 1542.969971 C 526.190002 1541.560059 526.159973 1540.189941 526.159973 1538.829956 C 526.159973 1480.400024 585.009949 1462.420044 595.070007 1455.180054 C 627.809998 1437.170044 629.190002 1417.109985 629.190002 1413.839966 C 629.190002 1413.540039 629.179993 1413.380005 629.179993 1413.380005 L 629.179993 1337.949951 C 629.179993 1337.949951 629.179993 1337.839966 629.179993 1337.650024 C 629.179993 1335.310059 628 1320.030029 597.070007 1320.030029 L 317.940002 1320.030029 C 317.940002 1320.030029 257.430023 1316.47998 257.430023 1361.670044 Z"/>
    <path id="path8" fill="#ffffff" stroke="none" d="M 257.339996 1825.790039 C 257.339996 1825.919922 257.339996 1826.060059 257.339996 1826.189941 C 257.339996 1844.040039 266.420013 1870.409912 266.420013 1887.669922 C 266.420013 1895.150024 264.720001 1900.909912 259.830017 1903.540039 C 248.160004 1909.810059 229.579987 1905.599976 221.470001 1875.030029 C 208.089996 1846.23999 187.380005 1784.459961 115.169983 1784.459961 C 42.960022 1784.459961 21.219971 1817.280029 21.219971 1871.429932 C 21.210022 1873.140015 21.200012 1874.820068 21.200012 1876.48999 C 21.200012 1955.550049 35.950012 1987.320068 38.679993 1992.52002 C 47.47998 2015.169922 69.469971 2031.22998 95.22998 2031.22998 C 128.73999 2031.22998 155.899994 2004.070068 155.899994 1970.560059 C 155.899994 1937.050049 128.73999 1909.890015 95.22998 1909.890015 C 75.309998 1909.890015 57.630005 1919.5 46.570007 1934.330078 C 45.940002 1930.76001 45.570007 1927.429932 45.570007 1924.48999 C 45.570007 1904.560059 53.700012 1871.060059 117.590027 1871.060059 C 204.869995 1871.060059 198.839996 1922.130005 244.519989 1922.130005 C 292.660004 1922.130005 266.220001 1877.959961 339.990021 1877.959961 C 401.610016 1877.959961 554.929993 1877.909912 609.659973 1877.900024 C 608.969971 1893.699951 601.619995 1958.719971 527.029968 1958.719971 C 514.23999 1927.340088 493.300018 1906.219971 455.899994 1909.090088 C 425.240021 1911.449951 399.320007 1929.130005 399.320007 1965.449951 C 399.320007 1965.449951 450.839996 1960.830078 467.5 2032.22998 C 509.589996 2032.22998 625.619995 2008.22998 629.079956 1877.890015 L 629.079956 1877.890015 C 629.079956 1877.890015 629.079956 1877.780029 629.079956 1877.780029 C 629.130005 1875.840088 629.159973 1873.880005 629.159973 1871.890015 C 629.159973 1811.609985 629.130005 1816.130005 629.130005 1816.130005 C 629.130005 1816.130005 629.109985 1816.060059 629.079956 1815.949951 L 629.079956 1802.070068 C 629.079956 1802.070068 629.079956 1801.959961 629.079956 1801.77002 C 629.079956 1799.429932 627.899963 1784.150024 596.969971 1784.150024 L 317.839996 1784.150024 C 317.839996 1784.150024 257.330017 1780.599976 257.330017 1825.790039 Z"/>
    <path id="path9" fill="#ffffff" stroke="none" d="M 256.860016 2102.300049 C 256.860016 2102.429932 256.860016 2102.570068 256.860016 2102.699951 C 256.860016 2120.550049 265.940002 2146.919922 265.940002 2164.179932 C 265.940002 2171.659912 264.240021 2177.419922 259.350006 2180.050049 C 247.679993 2186.320068 229.100006 2182.109863 220.98999 2151.540039 C 207.610016 2122.75 186.899994 2060.969971 114.690002 2060.969971 C 42.47998 2060.969971 20.73999 2093.790039 20.73999 2147.939941 C 20.73999 2198.040039 30.859985 2237.969971 32.369995 2243.649902 C 24.039978 2257.600098 20.72998 2275.47998 20.72998 2296.609863 C 20.72998 2344.590088 30.01001 2383.23999 32.130005 2391.419922 C 23.98999 2405.310059 20.73999 2423.040039 20.73999 2443.949951 C 20.73999 2477.189941 25.190002 2505.949951 28.640015 2523.199951 C 29.659973 2529.01001 30.929993 2534.560059 32.429993 2539.860107 C 32.52002 2540.189941 32.570007 2540.360107 32.570007 2540.360107 L 32.570007 2540.360107 C 58.440002 2630.629883 150.820007 2648.76001 187.390015 2648.76001 C 204.049988 2577.350098 255.570007 2581.97998 255.570007 2581.97998 C 255.570007 2545.659912 229.640015 2527.969971 198.98999 2525.620117 C 161.589996 2522.75 140.649994 2543.870117 127.859985 2575.25 C 93.039978 2575.25 72.880005 2561.070068 61.200012 2544.350098 C 60.460022 2543.22998 55.950012 2536.27002 51.890015 2526.620117 C 46.289978 2512.01001 45.340027 2498.469971 45.190002 2493.26001 C 46.280029 2473.149902 57.099976 2443.600098 117.109985 2443.600098 C 204.390015 2443.600098 198.360016 2494.669922 244.040009 2494.669922 C 292.180023 2494.669922 265.740021 2450.5 339.51001 2450.5 C 401.450012 2450.5 556.059998 2450.449951 610.029968 2450.439941 C 606.309998 2466.100098 570.079956 2489.100098 486.01001 2494.080078 C 395.820007 2494.080078 387.580017 2551.219971 387.580017 2572.100098 C 387.580017 2576.77002 387.990021 2579.629883 387.990021 2579.629883 L 525.659973 2579.629883 C 525.589966 2578.219971 525.559998 2576.850098 525.559998 2575.48999 C 525.559998 2517.060059 584.409973 2499.080078 594.469971 2491.840088 C 623.570007 2475.310059 627.940002 2457.110107 628.519958 2450.439941 L 628.579956 2450.439941 L 628.579956 2449.540039 C 628.599976 2449.209961 628.599976 2448.909912 628.599976 2448.669922 C 628.599976 2448.290039 628.589966 2448.030029 628.579956 2447.899902 L 628.579956 2374.609863 C 628.579956 2374.609863 628.579956 2374.5 628.579956 2374.310059 C 628.579956 2371.969971 627.399963 2356.689941 596.469971 2356.689941 L 317.339996 2356.689941 C 317.339996 2356.689941 256.830017 2353.140137 256.830017 2398.330078 C 256.830017 2398.459961 256.830017 2398.600098 256.830017 2398.72998 C 256.830017 2416.580078 265.910004 2442.949951 265.910004 2460.209961 C 265.910004 2467.689941 264.210022 2473.449951 259.320007 2476.080078 C 247.649994 2482.350098 229.070007 2478.139893 220.959991 2447.570068 C 207.579987 2418.780029 186.869995 2357 114.659973 2357 C 85.080017 2357 63.969971 2362.51001 49.349976 2372.73999 C 46.900024 2365.640137 45.049988 2357.649902 45.049988 2349.689941 C 45.049988 2329.76001 53.179993 2296.26001 117.070007 2296.26001 C 204.350006 2296.26001 198.320007 2347.330078 244 2347.330078 C 292.140015 2347.330078 265.700012 2303.159912 339.470001 2303.159912 C 397.740021 2303.159912 518.099976 2303.120117 579.449951 2303.100098 C 610.259949 2303.340088 605.589966 2306.820068 609.079956 2321.169922 L 628.549988 2321.27002 L 628.579956 2226.810059 C 628.579956 2226.810059 628.579956 2226.76001 628.579956 2226.669922 C 628.579956 2225.800049 628.320007 2220.879883 622.940002 2216.590088 C 618.589966 2212.75 610.630005 2209.340088 596.029968 2209.340088 L 317.339996 2209.340088 C 317.339996 2209.340088 256.830017 2205.790039 256.830017 2250.97998 C 256.830017 2251.109863 256.830017 2251.25 256.830017 2251.379883 C 256.830017 2269.22998 265.910004 2295.600098 265.910004 2312.859863 C 265.910004 2320.340088 264.210022 2326.100098 259.320007 2328.72998 C 247.649994 2335 229.070007 2330.790039 220.959991 2300.219971 C 207.579987 2271.429932 186.869995 2209.649902 114.659973 2209.649902 C 85.340027 2209.649902 64.340027 2215.060059 49.73999 2225.120117 C 47.109985 2217.76001 45.070007 2209.370117 45.070007 2201.01001 C 45.070007 2181.080078 53.200012 2147.580078 117.090027 2147.580078 C 204.369995 2147.580078 198.339996 2198.649902 244.019989 2198.649902 C 292.160004 2198.649902 265.720001 2154.47998 339.490021 2154.47998 C 397.76001 2154.47998 518.119995 2154.439941 579.469971 2154.419922 C 612.759949 2154.679932 605.609985 2158.140137 609.099976 2172.48999 L 628.570007 2172.590088 L 628.599976 2078.129883 C 628.599976 2078.129883 628.599976 2078.080078 628.599976 2077.98999 C 628.599976 2077.120117 628.339966 2072.199951 622.959961 2067.909912 C 618.609985 2064.070068 610.649963 2060.659912 596.049988 2060.659912 L 317.360016 2060.659912 C 317.360016 2060.659912 256.850006 2057.109863 256.850006 2102.300049 Z"/>
</svg>
